<?xml version="1.0" encoding="UTF-8"?>
<svg width="220px" height="60px" viewBox="0 0 220 60" version="1.1" xmlns="http://www.w3.org/2000/svg" xmlns:xlink="http://www.w3.org/1999/xlink">
    <!-- Generator: Sketch 46.2 (44496) - http://www.bohemiancoding.com/sketch -->
    <title>stars</title>
    <desc>Created with Sketch.</desc>
    <defs>
        <polygon id="path-1" points="30 38 22.946577 41.7082039 24.2936609 33.854102 18.5873218 28.2917961 26.4732885 27.145898 30 20 33.5267115 27.145898 41.4126782 28.2917961 35.7063391 33.854102 37.053423 41.7082039"></polygon>
        <polygon id="path-2" points="67 41 57.595436 45.9442719 59.3915479 35.472136 51.7830957 28.0557281 62.297718 26.527864 67 17 71.702282 26.527864 82.2169043 28.0557281 74.6084521 35.472136 76.404564 45.9442719"></polygon>
        <polygon id="path-3" points="110 42 99.4198655 47.5623059 101.440491 35.7811529 92.8809827 27.4376941 104.709933 25.7188471 110 15 115.290067 25.7188471 127.119017 27.4376941 118.559509 35.7811529 120.580135 47.5623059"></polygon>
        <polygon id="path-4" points="153 41 143.595436 45.9442719 145.391548 35.472136 137.783096 28.0557281 148.297718 26.527864 153 17 157.702282 26.527864 168.216904 28.0557281 160.608452 35.472136 162.404564 45.9442719"></polygon>
        <polygon id="path-5" points="190 38 182.946577 41.7082039 184.293661 33.854102 178.587322 28.2917961 186.473288 27.145898 190 20 193.526712 27.145898 201.412678 28.2917961 195.706339 33.854102 197.053423 41.7082039"></polygon>
    </defs>
    <g id="approved" stroke="none" stroke-width="1" fill="none" fill-rule="evenodd">
        <g id="cw-home" transform="translate(-849.000000, -1649.000000)">
            <g id="facility-cta" transform="translate(479.000000, 1348.000000)">
                <g id="stars" transform="translate(370.000000, 301.000000)">
                    <rect id="Rectangle-3-Copy" fill="#FFFFFF" x="0" y="0" width="220" height="60"></rect>
                    <g id="Star">
                        <use fill="#FFFFFF" fill-rule="evenodd" xlink:href="#path-1"></use>
                        <path stroke="#979797" stroke-width="1" d="M36.3893575,40.7941962 L35.1690988,33.679542 L40.3381976,28.640916 L33.1946788,27.6029019 L30,21.1297757 L26.8053212,27.6029019 L19.6618024,28.640916 L24.8309012,33.679542 L23.6106425,40.7941962 L30,37.4351121 L36.3893575,40.7941962 Z"></path>
                    </g>
                    <g id="Star-Copy">
                        <use fill="#FFFFFF" fill-rule="evenodd" xlink:href="#path-2"></use>
                        <path stroke="#979797" stroke-width="1" d="M75.7404985,45.0302641 L74.0712118,35.297576 L81.1424237,28.404848 L71.3702493,26.9848679 L67,18.1297757 L62.6297507,26.9848679 L52.8575763,28.404848 L59.9287882,35.297576 L58.2595015,45.0302641 L67,40.4351121 L75.7404985,45.0302641 Z"></path>
                    </g>
                    <g id="Star-Copy-2">
                        <use fill="#FFFFFF" fill-rule="evenodd" xlink:href="#path-3"></use>
                        <path stroke="#979797" stroke-width="1" d="M119.916069,46.6482981 L118.022268,35.606593 L126.044537,27.786814 L114.958035,26.1758509 L110,16.1297757 L105.041965,26.1758509 L93.9554633,27.786814 L101.977732,35.606593 L100.083931,46.6482981 L110,41.4351121 L119.916069,46.6482981 Z"></path>
                    </g>
                    <g id="Star-Copy-3">
                        <use fill="#FFFFFF" fill-rule="evenodd" xlink:href="#path-4"></use>
                        <path stroke="#979797" stroke-width="1" d="M161.740499,45.0302641 L160.071212,35.297576 L167.142424,28.404848 L157.370249,26.9848679 L153,18.1297757 L148.629751,26.9848679 L138.857576,28.404848 L145.928788,35.297576 L144.259501,45.0302641 L153,40.4351121 L161.740499,45.0302641 Z"></path>
                    </g>
                    <g id="Star-Copy-4">
                        <use fill="#FFFFFF" fill-rule="evenodd" xlink:href="#path-5"></use>
                        <path stroke="#979797" stroke-width="1" d="M196.389358,40.7941962 L195.169099,33.679542 L200.338198,28.640916 L193.194679,27.6029019 L190,21.1297757 L186.805321,27.6029019 L179.661802,28.640916 L184.830901,33.679542 L183.610642,40.7941962 L190,37.4351121 L196.389358,40.7941962 Z"></path>
                    </g>
                </g>
            </g>
        </g>
    </g>
</svg>