<?xml version="1.0" encoding="UTF-8" standalone="no"?>
<!DOCTYPE svg PUBLIC "-//W3C//DTD SVG 1.1//EN" "http://www.w3.org/Graphics/SVG/1.1/DTD/svg11.dtd">
<svg width="100%" height="100%" viewBox="0 0 12 12" version="1.1" xmlns="http://www.w3.org/2000/svg" xmlns:xlink="http://www.w3.org/1999/xlink" xml:space="preserve" style="fill-rule:evenodd;clip-rule:evenodd;stroke-linejoin:round;stroke-miterlimit:1.41421;">
    <g transform="matrix(1,0,0,1,-0.761905,13)">
        <g id="_.f103.">
            <path d="M11.998,-7.5C11.998,-7.589 11.953,-7.69 11.886,-7.757L11.328,-8.315C11.261,-8.382 11.161,-8.426 11.071,-8.426C10.982,-8.426 10.882,-8.382 10.815,-8.315L6.429,-3.929L2.042,-8.315C1.975,-8.382 1.875,-8.426 1.786,-8.426C1.685,-8.426 1.596,-8.382 1.529,-8.315L0.971,-7.757C0.904,-7.69 0.859,-7.589 0.859,-7.5C0.859,-7.411 0.904,-7.31 0.971,-7.243L6.172,-2.042C6.239,-1.975 6.339,-1.931 6.429,-1.931C6.518,-1.931 6.618,-1.975 6.685,-2.042L11.886,-7.243C11.953,-7.31 11.998,-7.411 11.998,-7.5ZM11.998,-11.786C11.998,-11.875 11.953,-11.975 11.886,-12.042L11.328,-12.6C11.261,-12.667 11.161,-12.712 11.071,-12.712C10.982,-12.712 10.882,-12.667 10.815,-12.6L6.429,-8.214L2.042,-12.6C1.975,-12.667 1.875,-12.712 1.786,-12.712C1.685,-12.712 1.596,-12.667 1.529,-12.6L0.971,-12.042C0.904,-11.975 0.859,-11.875 0.859,-11.786C0.859,-11.696 0.904,-11.596 0.971,-11.529L6.172,-6.328C6.239,-6.261 6.339,-6.217 6.429,-6.217C6.518,-6.217 6.618,-6.261 6.685,-6.328L11.886,-11.529C11.953,-11.596 11.998,-11.696 11.998,-11.786Z" style="fill:rgb(79,40,23);fill-rule:nonzero;"/>
        </g>
    </g>
</svg>
