<?xml version="1.0" encoding="UTF-8"?>
<svg width="300px" height="206px" viewBox="0 0 300 206" version="1.1" xmlns="http://www.w3.org/2000/svg" xmlns:xlink="http://www.w3.org/1999/xlink">
    <!-- Generator: Sketch 46.2 (44496) - http://www.bohemiancoding.com/sketch -->
    <title>Group</title>
    <desc>Created with Sketch.</desc>
    <defs>
        <polygon id="path-1" points="113.647819 0.354 0 0.354 0 117.999656 113.647819 117.999656 113.647819 0.354"></polygon>
    </defs>
    <g id="Symbols" stroke="none" stroke-width="1" fill="none" fill-rule="evenodd">
        <g id="footer" transform="translate(-810.000000, -49.000000)">
            <g id="Group">
                <g transform="translate(810.000000, 48.000000)">
                    <g id="training-center" transform="translate(59.000000, 187.000000)" fill="#FFFFFF">
                        <path d="M28.9395,9.8513 L32.5765,9.8513 C32.0055,7.6263 31.4605,5.5043 30.9155,3.3813 C30.8425,3.3793 30.7705,3.3783 30.6975,3.3763 C30.1305,5.4643 29.5635,7.5513 28.9395,9.8513 M17.3505,2.5993 L17.3505,9.9203 C19.9495,9.7553 21.4725,8.1043 21.3345,5.7083 C21.2195,3.7423 19.6375,2.4843 17.3505,2.5993 M32.6665,2.7573 C34.0215,7.6173 35.3665,12.4443 36.7715,17.4863 L40.4195,17.4863 L40.4195,2.7113 C39.7725,2.5423 39.2145,2.3963 38.6575,2.2503 C38.6645,2.1723 38.6715,2.0953 38.6795,2.0173 L44.3105,2.0173 C44.3305,2.0843 44.3505,2.1533 44.3705,2.2203 C43.8035,2.3823 43.2365,2.5453 42.5705,2.7373 L42.5705,17.3073 C43.2065,17.4783 43.7865,17.6333 44.3665,17.7893 C44.3515,17.8663 44.3365,17.9433 44.3215,18.0193 L32.8515,18.0193 C32.8305,17.9593 32.8095,17.8993 32.7885,17.8383 C33.3105,17.6703 33.8325,17.5033 34.5125,17.2863 C33.9485,15.1213 33.3835,12.9463 32.7745,10.6053 C31.3975,10.6863 30.0705,10.7633 28.6755,10.8443 C28.2535,13.0733 27.8635,15.1373 27.4615,17.2613 C28.0545,17.4693 28.5225,17.6343 28.9895,17.7983 C28.9875,17.8623 28.9855,17.9243 28.9835,17.9883 L25.7505,17.9883 C25.5445,18.3303 25.4205,18.5353 25.1685,18.9533 C22.5225,16.4353 20.8855,13.3203 18.8255,10.4923 C18.3305,10.5563 17.8615,10.6183 17.3225,10.6883 L17.3225,17.3093 C17.9495,17.4763 18.5445,17.6343 19.1415,17.7923 C19.1315,17.8593 19.1225,17.9263 19.1125,17.9933 L13.4965,17.9933 C13.4795,17.9273 13.4615,17.8623 13.4445,17.7963 C13.9825,17.6463 14.5215,17.4973 15.1975,17.3093 L15.1975,2.6753 C14.5365,2.5443 14.0085,2.4403 13.4815,2.3353 C13.4765,2.2653 13.4705,2.1943 13.4655,2.1223 C13.6475,2.0513 13.8305,1.9143 14.0115,1.9173 C16.0885,1.9543 18.1725,1.9123 20.2385,2.0863 C22.9115,2.3123 24.0815,4.3443 22.9715,6.7943 C22.5205,7.7903 21.7735,8.6543 21.0065,9.8113 C22.2275,12.2373 23.5475,14.8613 24.8235,17.3963 C25.7395,17.6273 26.0775,17.2763 26.2765,16.5893 C27.6065,11.9983 28.9575,7.4133 30.3225,2.7563 C29.8345,2.5453 29.4305,2.3713 29.0275,2.1963 C29.0375,2.1303 29.0465,2.0643 29.0565,1.9973 L33.9935,1.9973 C34.0145,2.0573 34.0355,2.1163 34.0565,2.1753 C33.6865,2.3303 33.3165,2.4853 32.6665,2.7573" id="Fill-1"></path>
                        <path d="M173.4107,9.9157 C174.9687,9.9457 176.1947,9.4217 176.9027,8.0437 C177.5947,6.6957 177.7537,5.2657 176.8307,3.9587 C176.0377,2.8367 174.8507,2.4997 173.4107,2.5657 L173.4107,9.9157 Z M177.1187,9.8447 C178.5407,12.6077 180.0517,15.5457 181.5997,18.5577 C181.0097,19.0367 180.6477,18.4547 180.3597,18.0617 C178.8027,15.9377 177.2837,13.7857 175.7557,11.6407 C175.5027,11.2857 175.2687,10.9177 174.9777,10.4827 C174.4667,10.5537 173.9637,10.6217 173.4327,10.6937 L173.4327,17.3027 C174.0837,17.4787 174.6337,17.6287 175.1827,17.7777 C175.1747,17.8497 175.1657,17.9207 175.1557,17.9917 L169.5407,17.9917 C169.5257,17.9317 169.5107,17.8697 169.4957,17.8097 C170.0797,17.6507 170.6637,17.4937 171.3267,17.3137 L171.3267,2.6917 C170.6817,2.5537 170.0877,2.4247 169.4927,2.2967 C169.4977,2.2167 169.5017,2.1357 169.5067,2.0547 C169.7587,2.0047 170.0117,1.9067 170.2627,1.9117 C172.2587,1.9467 174.2607,1.9177 176.2467,2.0727 C179.0787,2.2937 180.2437,4.3017 179.0507,6.8817 C178.6057,7.8397 177.8937,8.6737 177.1187,9.8447 L177.1187,9.8447 Z" id="Fill-3"></path>
                        <path d="M141.4234,2.7458 C140.6074,2.5318 140.0464,2.3858 139.4864,2.2398 C139.4944,2.1598 139.5034,2.0808 139.5124,2.0008 L143.9584,2.0008 C143.9874,2.0688 144.0164,2.1368 144.0444,2.2038 C143.6534,2.3748 143.2624,2.5448 142.6194,2.8258 C142.4694,8.0418 142.3164,13.3768 142.1624,18.7118 C142.0624,18.7538 141.9614,18.7968 141.8604,18.8388 C138.7804,14.0448 135.7004,9.2498 132.5994,4.4208 L132.5994,17.2758 C133.4024,17.4758 134.0004,17.6258 134.5994,17.7738 C134.5924,17.8448 134.5864,17.9138 134.5794,17.9838 L129.9154,17.9838 C129.8954,17.9288 129.8744,17.8728 129.8534,17.8158 C130.3004,17.6508 130.7474,17.4858 131.3974,17.2448 C131.5394,12.4918 131.6834,7.6708 131.8304,2.7558 C131.1054,2.6008 130.4884,2.4698 129.8714,2.3378 C129.8814,2.2288 129.8904,2.1208 129.8994,2.0128 C131.1434,1.9348 132.3864,1.8588 133.5784,1.7858 C136.1864,5.9918 138.7354,10.1048 141.4234,14.4418 L141.4234,2.7458 Z" id="Fill-5"></path>
                        <path d="M71.2696,2.7478 C70.5616,2.5938 69.9736,2.4658 69.3856,2.3378 C69.3916,2.2298 69.3976,2.1238 69.4036,2.0178 C70.6366,1.9368 71.8696,1.8578 73.0276,1.7838 C75.6406,5.9998 78.1916,10.1138 80.7426,14.2288 C80.8806,14.1838 81.0196,14.1388 81.1576,14.0928 C81.0516,10.2998 80.9466,6.5078 80.8416,2.7358 C80.0706,2.5358 79.5216,2.3938 78.9746,2.2518 L79.0156,1.9908 L83.4216,1.9908 C83.4536,2.0528 83.4856,2.1128 83.5176,2.1748 C83.1436,2.3448 82.7696,2.5158 82.3946,2.6858 C82.2926,2.6758 82.1906,2.6658 82.0876,2.6558 C81.9256,8.0228 81.7636,13.3898 81.6006,18.7568 C81.5156,18.8018 81.4306,18.8478 81.3446,18.8928 C78.2416,14.0608 75.1386,9.2278 72.0356,4.3958 L71.7596,4.4228 C71.8766,8.7158 71.9936,13.0088 72.1096,17.2878 C72.8946,17.4838 73.4926,17.6348 74.0916,17.7838 C74.0816,17.8538 74.0716,17.9248 74.0616,17.9938 L69.4086,17.9938 C69.3906,17.9328 69.3726,17.8698 69.3546,17.8078 C69.8046,17.6358 70.2536,17.4638 70.8506,17.2348 C70.9896,12.4428 71.1286,7.6268 71.2696,2.7478" id="Fill-7"></path>
                        <path d="M57.8975,14.0544 C57.7925,10.2794 57.6885,6.5024 57.5845,2.7434 C56.8145,2.5384 56.2605,2.3914 55.7065,2.2444 C55.7155,2.1644 55.7255,2.0834 55.7355,2.0034 L60.1715,2.0034 C60.1945,2.0664 60.2175,2.1294 60.2405,2.1924 C59.8455,2.3714 59.4515,2.5504 58.8145,2.8394 C58.6605,8.0564 58.5035,13.3924 58.3475,18.7284 C58.2555,18.7754 58.1645,18.8224 58.0725,18.8684 C54.9755,14.0494 51.8775,9.2304 48.7815,4.4104 C48.6905,4.4214 48.6005,4.4324 48.5105,4.4434 C48.6205,8.7094 48.7305,12.9754 48.8415,17.2764 C49.5945,17.4724 50.2125,17.6334 50.8305,17.7944 C50.8185,17.8674 50.8065,17.9414 50.7945,18.0134 L46.1595,18.0134 C46.1265,17.9414 46.0945,17.8674 46.0625,17.7944 C46.4975,17.6424 46.9315,17.4904 47.5785,17.2634 C47.7235,12.5284 47.8715,7.7114 48.0225,2.7814 C47.3375,2.6164 46.7255,2.4704 46.1135,2.3244 C46.1185,2.2214 46.1235,2.1194 46.1285,2.0174 C47.3625,1.9384 48.5955,1.8594 49.7665,1.7834 C52.3765,5.9944 54.9265,10.1104 57.4775,14.2264 C57.6175,14.1684 57.7575,14.1124 57.8975,14.0544" id="Fill-9"></path>
                        <path d="M96.814,2.0925 C96.979,1.3315 97.109,0.7365 97.269,-0.0005 C97.269,2.1655 97.272,4.1555 97.265,6.1465 C97.264,6.3265 97.203,6.5065 97.039,6.6915 C96.999,6.5085 96.922,6.3245 96.923,6.1425 C96.936,4.3155 95.921,3.2675 94.294,2.7235 C92.522,2.1305 90.819,2.1905 89.358,3.5165 C87.801,4.9305 87.283,6.8005 87.247,8.8145 C87.202,11.2885 87.935,13.5385 89.456,15.5045 C90.834,17.2855 93.312,18.3885 95.529,16.9415 L95.529,11.7635 C94.913,11.5955 94.374,11.4485 93.835,11.3025 C93.851,11.2175 93.867,11.1335 93.882,11.0485 L99.054,11.0485 L99.101,11.2505 C98.643,11.4045 98.184,11.5575 97.625,11.7435 L97.625,17.5295 C94.491,18.8105 89.749,18.7995 87.49,16.3975 C85.078,13.8325 84.405,9.3805 86.172,5.8665 C88.467,1.3045 92.418,1.0735 96.814,2.0925" id="Fill-11"></path>
                        <path d="M117.6812,16.5349 C117.3532,16.8639 117.0842,17.3259 116.6892,17.5019 C111.7232,19.7129 105.8312,18.0389 105.1842,11.1159 C105.0452,9.6229 105.3462,7.9859 105.8462,6.5559 C107.2452,2.5499 110.8542,0.8849 115.4832,1.8869 C115.8222,1.9609 116.1622,2.0259 116.5732,2.1089 C116.7232,1.4139 116.8552,0.8079 116.9862,0.2029 C117.0712,0.2109 117.1562,0.2179 117.2412,0.2239 C117.1192,2.4439 116.9982,4.6639 116.8772,6.8839 C116.8122,6.8879 116.7472,6.8909 116.6822,6.8949 C116.6462,6.7129 116.5982,6.5309 116.5762,6.3469 C116.3232,4.2529 115.3602,3.0489 113.5322,2.5489 C111.6552,2.0349 109.7302,2.7149 108.5642,4.3359 C107.0842,6.3939 106.9972,8.7119 107.3592,11.1019 C107.3952,11.3379 107.4612,11.5689 107.5282,11.7999 C108.8662,16.4219 112.7272,18.7969 117.4202,16.3019 C117.5072,16.3799 117.5942,16.4569 117.6812,16.5349" id="Fill-13"></path>
                        <path d="M160.355,2.7165 C159.656,2.5315 159.137,2.3945 158.618,2.2575 C158.626,2.1595 158.633,2.0635 158.641,1.9655 L166.403,1.9655 C166.603,1.5105 166.739,1.2005 166.876,0.8925 C166.94,0.8995 167.005,0.9055 167.07,0.9125 C166.971,2.3305 166.873,3.7495 166.774,5.1675 C166.698,5.1705 166.623,5.1735 166.547,5.1755 C166.49,4.6455 166.433,4.1135 166.344,3.2795 C165.2,3.0235 163.96,2.7435 162.557,2.4285 L162.557,9.0485 C164.522,9.4435 165.865,9.0375 166.465,7.9475 C166.337,9.2155 166.209,10.4845 166.08,11.7515 C166.009,11.7485 165.94,11.7445 165.87,11.7415 C165.835,11.3145 165.8,10.8855 165.745,10.2045 C164.727,10.0675 163.664,9.9225 162.506,9.7655 L162.506,17.4805 C163.636,17.3305 164.674,17.2055 165.708,17.0555 C167.149,16.8465 166.724,15.4775 167.366,14.6745 C167.199,16.3025 167.032,17.9315 166.865,19.5595 L166.616,19.5475 C166.577,19.1675 166.537,18.7875 166.473,18.1705 L158.615,18.1705 C158.603,18.0485 158.591,17.9275 158.581,17.8065 C159.123,17.6525 159.666,17.4975 160.355,17.3005 L160.355,2.7165 Z" id="Fill-15"></path>
                        <path d="M122.98,17.574 C124.512,17.303 125.818,17.07 127.069,16.848 C127.284,15.946 127.444,15.272 127.604,14.598 C127.684,14.613 127.765,14.628 127.845,14.643 C127.678,16.258 127.51,17.873 127.342,19.488 C127.264,19.502 127.185,19.516 127.107,19.531 C127.039,19.154 126.969,18.777 126.864,18.2 L119.113,18.2 L119.057,17.828 C119.307,17.749 119.556,17.667 119.807,17.593 C120.109,17.503 120.414,17.421 120.814,17.308 L120.814,2.715 C120.142,2.54 119.596,2.397 119.049,2.256 L119.084,1.922 L127.01,1.922 C127.133,1.44 127.216,1.117 127.298,0.793 C127.375,0.801 127.451,0.808 127.527,0.817 C127.442,2.22 127.357,3.624 127.272,5.027 C127.184,5.03 127.096,5.032 127.008,5.034 C126.965,4.557 126.923,4.082 126.853,3.303 C125.701,3.036 124.465,2.751 123.028,2.418 L123.028,9.214 C124.058,9.132 125.145,9.045 126.258,8.956 C126.449,8.57 126.611,8.242 126.772,7.914 C126.836,7.934 126.902,7.955 126.966,7.974 L126.536,11.777 C126.458,11.771 126.379,11.765 126.302,11.759 C126.268,11.3 126.233,10.841 126.183,10.181 C125.153,10.048 124.11,9.912 122.98,9.765 L122.98,17.574 Z" id="Fill-17"></path>
                        <path d="M4.9512,2.8181 C3.7302,3.0171 2.6022,3.1741 1.4852,3.3911 C0.0022,3.6801 0.5082,5.1581 0.0002,6.1821 L0.0002,0.5611 C0.1082,0.5511 0.2172,0.5411 0.3262,0.5311 C0.4062,0.9631 0.4872,1.3931 0.6072,2.0381 L11.7842,2.0381 C11.9382,1.5381 12.0692,1.1101 12.2012,0.6811 C12.2922,0.6971 12.3842,0.7131 12.4752,0.7271 C12.3132,2.5471 12.1522,4.3661 11.9902,6.1841 C11.9032,6.1911 11.8152,6.1971 11.7282,6.2041 C11.6892,5.4341 11.6502,4.6661 11.5982,3.6441 C10.1952,3.3681 8.7802,3.0891 7.1672,2.7731 L7.1672,17.2841 C7.9082,17.4461 8.6162,17.6021 9.3242,17.7571 C9.3152,17.8361 9.3072,17.9141 9.2992,17.9921 L2.8692,17.9921 C2.8472,17.9321 2.8252,17.8731 2.8032,17.8131 C3.4752,17.6431 4.1472,17.4721 4.9512,17.2691 L4.9512,2.8181 Z" id="Fill-19"></path>
                        <path d="M152.271,17.2947 C153.132,17.4717 153.816,17.6117 154.5,17.7527 C154.494,17.8317 154.487,17.9117 154.48,17.9907 L147.957,17.9907 C147.934,17.9347 147.913,17.8787 147.891,17.8217 C148.605,17.6437 149.318,17.4647 150.136,17.2607 L150.136,2.8277 C148.897,3.0207 147.776,3.1767 146.662,3.3707 C145.151,3.6347 145.627,5.1067 145.23,6.0457 C145.143,6.0217 145.056,5.9957 144.969,5.9707 C145.062,4.1767 145.155,2.3827 145.248,0.5877 C145.321,0.5697 145.394,0.5537 145.468,0.5357 C145.561,0.9917 145.654,1.4467 145.782,2.0777 L156.906,2.0777 C157.079,1.5357 157.226,1.0747 157.374,0.6137 C157.455,0.6317 157.537,0.6487 157.619,0.6667 C157.455,2.5267 157.291,4.3877 157.125,6.2477 C157.035,6.2547 156.943,6.2607 156.852,6.2677 C156.803,5.4877 156.755,4.7097 156.689,3.6387 C155.314,3.3717 153.873,3.0927 152.271,2.7827 L152.271,17.2947 Z" id="Fill-21"></path>
                        <path d="M61.9932,1.9392 L67.5792,1.9392 C67.6032,2.0182 67.6282,2.0972 67.6522,2.1762 C67.0682,2.3612 66.4842,2.5462 65.8222,2.7562 L65.8222,17.2882 C66.4322,17.4562 67.0292,17.6202 67.6242,17.7832 C67.6212,17.8472 67.6182,17.9112 67.6152,17.9752 L61.9832,17.9752 C61.9582,17.9152 61.9332,17.8532 61.9092,17.7932 C62.4682,17.6282 63.0262,17.4652 63.6772,17.2752 L63.6772,2.7512 C63.0042,2.5312 62.4662,2.3542 61.9272,2.1782 C61.9492,2.0982 61.9712,2.0182 61.9932,1.9392" id="Fill-23"></path>
                    </g>
                    <g id="colonial-wood" transform="translate(0.000000, 137.000000)" fill="#FFFFFF">
                        <path d="M250.1352,27.595 C252.7882,23.058 251.5762,13.991 249.0712,10.885 C246.6722,15.301 247.1422,23.042 250.1352,27.595 M251.8592,7.362 C257.1792,14.918 256.2872,22.439 251.8602,30.137 C252.5942,30.697 253.3342,31.373 254.1762,31.883 C257.5602,33.929 261.0062,33.362 263.4322,30.241 C264.3212,29.097 265.0692,27.755 265.5312,26.385 C267.2092,21.423 266.6322,16.546 264.5582,11.817 C263.7632,10.004 262.5832,8.442 261.0052,7.213 C258.1702,5.005 254.4062,5.094 251.8592,7.362 M247.5672,8.592 C244.9392,5.307 240.7482,4.679 237.3332,7.058 C235.7052,8.192 234.5472,9.721 233.8922,11.559 C231.7252,17.646 232.4302,23.421 236.0342,28.791 C237.2392,30.585 238.8652,31.928 240.9492,32.641 C243.5732,33.539 246.1012,32.958 247.6422,31.162 C242.4032,23.66 242.8372,16.196 247.5672,8.592 M248.9962,32.545 C246.1752,34.569 242.9082,35.091 239.4842,34.584 C234.5992,33.862 231.6652,30.673 230.1342,26.285 C228.2742,20.952 228.6932,15.63 231.5252,10.676 C235.0802,4.457 241.7192,2.927 247.3232,4.699 C248.3722,5.03 249.3362,5.634 250.4672,6.174 C252.4692,4.842 254.8122,4.118 257.3312,4.025 C263.6452,3.789 268.4362,7.51 269.8202,13.812 C270.8092,18.317 270.3492,22.732 268.4072,26.914 C265.3712,33.453 259.2322,35.995 252.6352,34.185 C251.4292,33.854 250.3232,33.154 248.9962,32.545" id="Fill-1"></path>
                        <path d="M195.9985,6.0511 C195.0195,5.4311 193.6915,5.9641 193.2175,4.6431 L202.7275,4.6431 C202.8275,5.2661 202.8275,5.2661 199.9495,6.0941 C201.3615,13.0891 202.7775,20.0981 204.1935,27.1071 C204.3235,27.1141 204.4525,27.1211 204.5825,27.1281 C206.4505,20.5081 208.3185,13.8881 210.1955,7.2401 C208.9925,6.8421 207.9955,6.5191 207.0105,6.1661 C206.9495,6.1441 206.9765,5.8801 206.9575,5.6701 L215.7545,5.6701 C215.4005,7.0861 213.8995,6.3481 213.2245,7.2571 C215.0605,13.8881 216.9295,20.6361 218.7985,27.3841 C218.8835,27.3911 218.9685,27.3971 219.0535,27.4041 C220.6575,20.3321 222.4005,13.2891 223.3815,6.1141 C222.2715,5.7531 221.3125,5.4501 220.3655,5.1151 C220.2985,5.0921 220.3135,4.8351 220.2835,4.6401 L228.2465,4.6401 C228.5135,5.1611 228.2945,5.4581 227.7505,5.5111 C226.4495,5.6381 225.9975,6.4991 225.7005,7.6311 C223.4785,16.1151 221.2265,24.5921 218.9845,33.0721 C218.7415,33.9951 218.5115,34.9231 218.0305,35.8981 C215.5955,27.7881 213.1595,19.6771 210.6435,11.2971 C208.1535,19.6221 205.7335,27.7181 203.3125,35.8141 C203.2045,35.8031 203.0975,35.7921 202.9895,35.7811 C200.6585,25.8711 198.3285,15.9611 195.9985,6.0511" id="Fill-3"></path>
                        <path d="M280.0913,6.3284 L280.0913,31.9484 C281.1433,32.1654 282.0633,32.4994 282.9903,32.5224 C288.0123,32.6474 291.6343,30.3654 293.8803,25.9114 C295.2903,23.1144 295.5273,20.0894 295.2923,17.0274 C294.8843,11.6894 292.1103,8.0724 287.4333,6.7074 C285.0663,6.0164 282.6653,5.9224 280.0913,6.3284 M272.7133,33.8184 C273.5193,32.7604 275.0773,33.5254 276.1793,32.5874 L276.1793,6.0104 C274.9733,5.7714 273.8923,5.5584 272.7963,5.3414 L272.7963,4.6924 C272.9223,4.6514 273.0303,4.5874 273.1393,4.5864 C276.3343,4.5784 279.5293,4.5364 282.7243,4.5884 C284.9933,4.6254 287.2753,4.6704 289.5273,4.9264 C294.7013,5.5144 298.4243,9.2234 299.0703,14.7534 C299.6203,19.4544 298.6333,23.9054 295.8033,27.8074 C293.1653,31.4444 289.4783,33.4794 285.0953,33.9014 C281.0543,34.2914 276.9673,34.2004 272.9003,34.3204 C272.8383,34.1534 272.7763,33.9854 272.7133,33.8184" id="Fill-5"></path>
                        <path d="M155.2524,18.8636 C154.2244,14.8646 153.1924,10.8526 152.1604,6.8396 C152.0664,6.8516 151.9744,6.8636 151.8814,6.8746 C150.8144,10.8126 149.7464,14.7506 148.6314,18.8636 L155.2524,18.8636 Z M151.0954,5.9676 C150.3874,5.0486 148.9404,5.8486 148.5784,4.4236 L158.0664,4.4236 C157.7214,5.8326 156.2544,5.0436 155.5834,5.9316 C157.8314,14.8046 160.0664,23.8036 163.0344,32.3186 C164.0154,33.1766 165.4654,32.4556 166.0454,33.8936 L155.6584,33.8936 C155.5914,32.7946 156.4814,33.1426 156.9664,32.9846 C157.5234,32.8016 158.1204,32.7386 158.8534,32.5926 C157.7494,28.4156 156.6754,24.3516 155.5724,20.1776 C153.0904,20.3586 150.7494,20.5296 148.1574,20.7176 C147.4034,24.6466 146.6514,28.5666 145.9394,32.2796 C146.8434,33.2666 148.3084,32.5076 148.8984,33.9346 L130.0394,33.9346 C130.0994,33.3556 130.0994,33.3556 133.3114,32.5096 L133.3114,5.8616 C132.1654,5.5436 131.0774,5.2456 129.9994,4.9216 C129.9564,4.9086 129.9934,4.6316 129.9934,4.4286 L140.4194,4.4286 C140.3534,5.1586 140.3524,5.1546 139.1014,5.3946 C138.4804,5.5146 137.8634,5.6546 137.1384,5.8076 L137.1384,32.4826 C139.1954,33.1766 141.1604,33.3696 143.4544,32.4246 C145.9704,23.7156 148.5434,14.8056 151.0954,5.9676 L151.0954,5.9676 Z" id="Fill-8"></path>
                        <path d="M94.56,19.8714 C94.474,19.0734 94.409,17.7514 94.176,16.4604 C93.573,13.1004 92.361,9.9994 89.815,7.6024 C87.947,5.8434 85.762,4.9404 83.139,5.5554 C79.785,6.3414 77.778,8.6104 76.669,11.7004 C75.129,15.9924 75.289,20.3174 76.846,24.5844 C77.896,27.4604 79.501,29.9534 82.165,31.6044 C85.539,33.6974 89.079,33.0904 91.556,30.0154 C93.821,27.2054 94.519,23.8974 94.56,19.8714 M98.35,17.9384 C98.321,21.8084 97.541,25.4874 95.348,28.7324 C92.301,33.2384 87.987,35.0474 82.633,34.3754 C77.883,33.7804 74.824,30.8584 73.295,26.6004 C70.888,19.8894 71.558,13.4544 76.364,7.8644 C80.826,2.6744 90.586,2.1424 95.187,7.8784 C97.552,10.8274 98.357,14.2524 98.35,17.9384" id="Fill-10"></path>
                        <path d="M28.103,17.6482 C28.047,20.4202 28.561,23.0272 29.652,25.5062 C30.765,28.0372 32.306,30.2422 34.74,31.6892 C38.005,33.6282 41.457,33.0982 43.848,30.1542 C44.712,29.0902 45.417,27.8352 45.928,26.5592 C47.307,23.1162 47.218,19.5392 46.529,15.9602 C45.999,13.2192 44.957,10.6962 43.158,8.5252 C40.782,5.6602 37.504,4.6522 34.41,5.8882 C32.194,6.7732 30.658,8.4042 29.609,10.5172 C28.485,12.7822 28.095,15.2052 28.103,17.6482 M24.35,19.8362 C24.553,14.7762 25.919,10.2372 29.865,6.8622 C37.501,0.3292 48.577,4.1862 50.448,14.0322 C51.303,18.5352 50.808,22.9532 48.753,27.0982 C45.742,33.1712 39.372,35.9522 33.087,33.9272 C28.678,32.5072 26.364,29.1072 25.124,24.9012 C24.646,23.2782 24.595,21.5282 24.35,19.8362" id="Fill-12"></path>
                        <path d="M106.4624,32.471 C107.5594,33.2 108.9984,32.526 110.0594,33.842 L101.0684,33.842 C100.9764,33 101.6394,33.077 102.1424,32.962 C102.6394,32.848 103.1334,32.721 103.9034,32.533 C104.1494,23.657 104.3964,14.806 104.6454,5.842 C103.3944,5.63 102.3074,5.447 101.1724,5.255 C101.1304,5.061 101.0814,4.839 100.9834,4.393 L108.0494,4.393 C112.6684,11.858 117.3884,19.485 122.1074,27.112 C122.2494,27.069 122.3934,27.026 122.5354,26.984 C122.4874,19.965 122.6624,12.942 121.9714,5.879 C120.8474,5.545 119.7724,5.229 118.7034,4.894 C118.6704,4.884 118.6994,4.672 118.6994,4.467 L127.1374,4.467 C126.8114,5.824 125.4474,5.243 124.5894,6.001 C123.7164,15.666 124.0214,25.578 123.4194,35.515 C117.3234,26.687 111.5524,17.685 105.9414,8.496 C105.4314,9.971 105.9304,30.776 106.4624,32.471" id="Fill-14"></path>
                        <path d="M22.8237,30.3934 C22.8647,31.8264 22.1417,32.5694 21.0017,33.0154 C15.7987,35.0484 10.6397,35.4604 5.8117,32.1204 C2.8677,30.0824 1.1697,27.0664 0.4507,23.5934 C-0.4143,19.4154 -0.0863,15.2844 1.8927,11.4594 C4.5527,6.3234 8.7877,3.5884 14.6777,3.8574 C16.7367,3.9514 18.7807,4.3514 20.9817,4.6314 C21.2207,3.5594 21.5077,2.2794 21.7927,0.9994 C21.9277,1.0304 22.0627,1.0604 22.1977,1.0904 C21.9887,5.2804 21.7807,9.4694 21.5617,13.8704 C21.3087,13.6364 21.0527,13.5114 21.0067,13.3324 C20.9177,12.9914 20.9507,12.6194 20.9287,12.2604 C20.7107,8.5114 17.9407,5.6714 14.1727,5.3314 C10.1397,4.9684 6.8207,6.8514 5.1697,10.8634 C2.5707,17.1814 3.4237,23.1994 7.6447,28.5444 C11.4997,33.4254 17.3227,33.2994 21.8417,30.9854 C22.1597,30.8224 22.4557,30.6164 22.8237,30.3934" id="Fill-16"></path>
                        <path d="M181.1167,39.3567 C180.2197,38.4947 180.6907,37.5857 180.6197,36.8077 C180.5427,35.9797 180.6017,35.1387 180.6017,34.0777 L166.2437,34.0777 C166.1777,32.7847 167.0897,33.1637 167.5637,33.0047 C168.1567,32.8057 168.8037,32.7677 169.5977,32.6317 L169.5977,5.8207 C168.3917,5.5187 167.3257,5.2587 166.2677,4.9677 C166.2117,4.9527 166.2257,4.6787 166.1977,4.4477 L177.0967,4.4477 C177.0907,5.1337 177.0897,5.1287 175.6027,5.3947 C174.9057,5.5187 174.2127,5.6667 173.4597,5.8147 L173.4597,32.4567 C176.0997,32.5697 178.4797,32.0987 180.6027,30.6757 C180.9477,30.4447 181.1647,29.9177 181.2887,29.4827 C181.5827,28.4487 181.7667,27.3837 182.0367,26.3427 C182.1167,26.0317 182.3337,25.7567 182.4887,25.4647 C182.5837,25.5037 182.6787,25.5427 182.7727,25.5817 C182.2307,30.0947 181.6877,34.6087 181.1167,39.3567" id="Fill-19"></path>
                        <path d="M53.1186,4.4231 L64.3406,4.4231 C64.3746,4.5271 64.4076,4.6311 64.4406,4.7351 C63.4666,5.8361 61.8376,5.2161 60.5446,5.9161 L60.5446,32.4541 C63.2486,32.5721 65.6916,32.0991 67.8486,30.5721 C68.1816,30.3361 68.3366,29.7701 68.4566,29.3241 C68.7266,28.3251 68.9116,27.3021 69.1606,26.2971 C69.2326,26.0051 69.4066,25.7381 69.5346,25.4601 C69.6506,25.4961 69.7676,25.5321 69.8846,25.5691 C69.3426,30.0891 68.8006,34.6091 68.2276,39.3811 C67.2976,38.4451 67.8426,37.5481 67.7726,36.7601 C67.7006,35.9331 67.7566,35.0951 67.7566,34.0371 L53.4116,34.0371 L53.3386,33.6221 C54.1236,32.5021 55.6816,33.2891 56.7426,32.3831 L56.7426,5.9861 C55.7626,5.0601 54.1196,5.8811 53.1186,4.4231" id="Fill-21"></path>
                    </g>
                    <g id="logo-symbol" transform="translate(93.000000, 0.000000)">
                        <g id="Group-3" transform="translate(0.000000, 0.646000)">
                            <mask id="mask-2" fill="white">
                                <use xlink:href="#path-1"></use>
                            </mask>
                            <g id="Clip-2"></g>
                            <path d="M68.7029,4.787 C69.2789,5.298 69.8489,5.779 70.3909,6.29 C72.2099,8.003 72.2059,8.007 74.0049,6.273 C74.0299,6.249 74.0309,6.199 74.0429,6.161 C72.9119,4.632 70.2139,3.9 68.7029,4.787 L68.7029,4.787 Z M20.7319,26.407 C18.1259,27.877 16.1549,31.135 16.5529,32.912 C17.8509,31.874 19.2069,30.791 20.7319,29.573 L20.7319,26.407 Z M37.3319,13.181 C33.0939,13.151 28.9359,15.432 27.9909,18.333 C30.2369,17.085 32.5439,16.47 34.9689,16.667 C35.7669,15.49 36.5009,14.407 37.3319,13.181 L37.3319,13.181 Z M9.1209,55.559 C9.1379,55.538 9.1549,55.516 9.1719,55.495 C9.1499,55.525 9.1279,55.555 9.1049,55.584 C9.1609,55.237 9.2649,54.891 9.2649,54.544 C9.2519,50.991 10.0039,47.581 11.9699,44.644 C13.2069,42.796 12.4759,41.303 12.0509,39.583 C6.5019,43.144 3.8059,52.15 6.1819,56.58 C6.2919,55.53 6.3309,54.454 6.5359,53.412 C6.7419,52.363 7.1129,51.347 7.4299,50.256 C8.0379,52.165 8.5799,53.862 9.1209,55.559 L9.1209,55.559 Z M12.1489,104.525 L12.1249,104.613 L12.1659,104.545 C10.6749,102.972 9.3039,101.335 9.1969,98.947 C9.6989,99.072 10.1059,99.173 10.7329,99.329 C10.0799,97.859 9.4979,96.549 8.8069,94.991 C9.7109,95.301 10.3359,95.516 10.9619,95.731 C10.9979,95.661 11.0329,95.59 11.0689,95.519 C9.7629,94.316 8.4569,93.113 7.1199,91.881 C4.8929,96.271 6.9859,102.421 11.2809,104.424 C11.5319,104.54 11.8579,104.495 12.1489,104.525 L12.1489,104.525 Z M20.0719,71.453 C17.0729,70.36 13.8769,69.657 11.6089,67.09 C11.2099,68.358 11.6319,69.927 12.8699,71.065 C13.8609,71.975 15.0649,72.647 16.1059,73.508 C17.1399,74.364 18.1129,75.298 19.0589,76.251 C19.3099,76.503 19.3659,76.949 19.5109,77.305 L19.5179,77.298 C16.5989,75.316 13.2449,74.407 9.9309,73.398 C9.6809,73.322 9.4199,73.279 9.0379,73.191 C9.4979,75.564 10.4389,77.586 11.9869,79.229 C16.3069,83.814 21.4319,86.83 27.9369,86.882 C32.0549,86.914 36.1739,86.816 40.2899,86.912 C41.6489,86.943 42.9989,87.397 44.3529,87.658 C44.3369,87.789 44.3219,87.921 44.3069,88.053 L33.7089,88.053 C33.7129,88.104 33.7169,88.155 33.7199,88.206 C36.3019,88.873 38.8839,89.54 41.4649,90.207 L41.4379,90.165 C41.1229,90.187 40.8019,90.263 40.4949,90.222 C38.3289,89.937 36.1739,89.505 33.9999,89.369 C32.3819,89.267 30.7239,89.431 29.1109,89.662 C23.7999,90.425 18.5939,90.308 13.4349,88.082 C13.5899,89.325 14.2239,90.236 15.1779,90.644 C16.6969,91.295 18.3049,91.894 19.9289,92.104 C21.6919,92.332 23.5149,92.061 25.3129,92.062 C27.2259,92.062 29.1439,92.05 31.0489,92.196 C31.8679,92.259 32.6579,92.705 33.6499,93.042 C33.3279,93.218 33.2649,93.283 33.2089,93.278 C30.3639,93.018 27.5689,93.239 24.7509,93.784 C21.4959,94.413 18.1819,94.731 14.8589,94.087 C14.8109,94.177 14.7649,94.266 14.7169,94.355 C15.3539,94.751 15.9449,95.346 16.6369,95.508 C18.7639,96.004 20.9159,96.497 23.0849,96.685 C25.3879,96.886 27.7209,96.716 30.0399,96.749 C31.0719,96.764 32.1029,96.88 33.1259,97.057 C29.4159,97.619 25.7189,98.285 21.9929,98.697 C20.2029,98.894 18.3609,98.609 16.4809,98.541 C18.0369,99.706 19.8379,100.199 21.6979,100.303 C24.8489,100.479 28.0089,100.49 31.1649,100.563 C31.8589,100.579 32.5539,100.565 33.2539,100.724 C28.2869,101.717 23.3469,102.82 18.0989,102.397 C18.4909,103.296 19.1999,103.521 19.9079,103.734 C22.8779,104.631 25.9189,104.558 28.9499,104.279 C33.4449,103.866 37.9249,103.274 42.4239,102.91 C45.5309,102.659 46.3119,102.934 48.2129,104.18 C47.3619,104.09 46.7229,104.028 46.0839,103.955 C42.8389,103.587 39.7359,104.501 36.5889,105.012 C32.9999,105.593 29.4239,106.276 25.8209,106.749 C24.1729,106.966 22.4719,106.787 20.7949,106.787 L20.7029,107.049 C21.2819,107.301 21.8449,107.603 22.4429,107.796 C25.5039,108.786 28.6649,108.931 31.8199,108.604 C36.2299,108.147 40.6169,107.475 45.0219,106.969 C47.6019,106.673 50.1989,106.343 52.7859,106.359 C54.6609,106.37 56.5319,106.923 58.3679,107.401 C56.0289,107.57 53.6419,107.501 51.3619,107.962 C47.5729,108.727 43.8209,109.724 40.1119,110.823 C35.0359,112.328 29.9649,113.726 24.6009,113.512 C24.5329,113.509 24.4629,113.565 24.3309,113.852 C25.3489,114.067 26.3579,114.398 27.3869,114.476 C31.6989,114.805 35.9099,114.032 40.1069,113.174 C44.9599,112.183 49.7859,111.057 54.7619,110.774 C58.1819,110.579 61.4639,110.931 64.5389,112.541 C64.8209,112.689 65.1079,112.83 65.3859,112.989 C65.5569,113.086 65.7139,113.21 66.0719,113.456 C64.4929,113.135 63.1459,112.803 61.7809,112.594 C56.0189,111.712 50.3879,112.621 44.7879,113.899 C39.8819,115.019 34.9779,116.148 30.0649,117.24 C28.9359,117.491 27.7819,117.646 26.6319,117.779 C18.5469,118.719 11.3389,116.729 6.0329,110.395 C2.1019,105.702 1.1949,100.107 3.8189,94.318 C4.4659,92.89 5.5219,91.646 6.4919,90.161 C5.5699,88.23 4.4879,86.099 4.3499,83.666 C6.0739,84.58 7.7369,85.463 9.4009,86.346 C9.4989,86.2 9.5979,86.054 9.6959,85.908 C9.1769,85.445 8.7019,84.918 8.1319,84.53 C4.2239,81.866 2.1549,78.084 1.4079,73.508 C0.9769,70.866 1.7099,68.441 2.9909,66.113 C-0.4611,60.994 -0.6861,55.466 1.0989,49.8 C2.8919,44.109 6.9959,40.221 11.6839,37.052 C12.1749,30.721 14.3159,25.822 21.1729,24.523 C21.4329,23.759 21.6589,23.04 21.9219,22.337 C24.1719,16.324 28.4389,12.701 34.7799,11.611 C35.7519,11.443 36.7759,11.508 37.7709,11.556 C38.6319,11.597 39.2579,11.329 39.8849,10.715 C43.4769,7.204 47.6469,4.72 52.6359,3.746 C55.9709,3.095 59.2339,3.396 62.4619,4.398 C62.8779,4.527 63.4329,4.581 63.8069,4.412 C68.4599,2.312 73.1849,1.958 77.9329,3.639 C78.8629,3.256 79.7509,2.58 80.5879,2.638 C81.3719,2.692 82.1009,3.524 82.9399,4.07 C84.9159,2.515 87.0839,1.36 90.0249,1.823 C88.8279,2.806 87.9509,3.765 87.8209,5.336 C88.2309,5.229 88.5209,5.164 88.8039,5.079 C91.3189,4.312 93.8359,3.603 96.5209,3.944 C97.5069,4.069 97.8879,3.675 97.9359,2.637 C97.9679,1.966 97.9419,1.292 97.9419,0.723 C98.6299,0.145 99.1039,0.287 99.4689,0.86 C100.1899,1.994 100.8459,3.172 101.6109,4.275 C102.3089,5.282 102.9699,6.4 103.9059,7.143 C106.4649,9.175 107.0019,12.069 107.5979,14.972 C107.6319,15.141 107.4989,15.344 107.4439,15.531 L107.4499,15.536 C106.5989,13.824 105.7859,12.092 104.8849,10.408 C104.2929,9.303 103.4509,8.404 101.9989,7.858 C101.7659,8.934 101.5519,9.919 101.3249,10.964 C104.3169,12.345 105.8319,14.939 107.3079,17.562 C108.6019,19.86 109.7989,22.222 111.7659,24.055 L111.7319,24.03 C110.6329,23.201 109.3789,22.511 108.4709,21.509 C107.1619,20.065 106.1149,18.386 104.9349,16.823 C103.7809,15.294 102.5729,13.815 100.6989,12.932 C100.0409,13.984 99.4099,14.994 98.8229,15.933 C100.7729,17.513 102.7649,18.956 104.5499,20.62 C106.3209,22.272 107.8869,24.147 109.5139,25.893 C108.1659,25.72 106.9579,24.985 105.8609,24.08 C104.8449,23.242 103.9609,22.24 102.9219,21.433 C101.4459,20.289 99.8879,19.25 98.3489,18.189 C98.1709,18.065 97.8899,18.03 97.6629,18.045 C96.3399,18.134 94.6359,20.281 94.9689,21.56 C95.0859,22.01 95.5559,22.601 95.9689,22.702 C98.2899,23.267 100.0769,24.618 101.6549,26.309 C102.7189,27.45 103.7379,28.631 104.7799,29.791 C106.3489,31.537 108.1139,33.006 110.4289,33.692 C110.3879,33.794 110.3459,33.896 110.3049,33.998 C108.9579,33.496 107.5319,33.141 106.2849,32.458 C104.5389,31.502 102.9309,30.296 101.2569,29.205 C99.5789,28.112 97.8459,27.146 95.5159,26.832 C95.6669,28.35 95.7069,29.767 95.9639,31.143 C96.6379,34.752 98.2339,37.999 100.5209,40.811 C102.1949,42.869 102.2839,44.993 101.6879,47.328 C101.4319,48.33 101.1269,49.335 100.7129,50.282 C97.6819,57.218 98.3469,64.103 101.0459,70.92 C103.2229,76.418 106.6219,81.048 111.3259,84.688 C111.6819,84.963 111.9939,85.383 112.1609,85.802 C113.9029,90.148 114.1409,94.578 112.7339,99.056 C111.8219,101.959 109.4179,103.36 106.8859,104.525 C105.0349,105.376 103.0249,105.705 101.0289,105.158 C98.0699,104.347 95.1509,103.391 92.2159,102.495 C91.0589,102.141 90.4509,101.305 90.2429,100.161 C90.0279,98.982 89.8129,97.801 89.6779,96.612 C89.5969,95.895 89.2569,95.491 88.6449,95.143 C84.8179,92.968 81.0379,90.695 77.7789,87.714 C75.5159,85.645 73.4579,83.354 71.1219,80.972 C59.4509,81.13 51.2779,75.614 47.3819,64.185 C44.6419,56.144 46.8069,49.116 52.4559,42.869 C51.8139,44.862 51.0509,46.696 50.6369,48.605 C48.7079,57.498 51.9019,64.611 58.5559,70.38 C60.9939,72.494 63.9819,73.24 67.1819,72.926 C68.9379,72.753 70.4859,71.97 71.7349,70.725 C73.0349,69.43 73.2939,67.533 72.4779,65.838 C72.2379,65.338 71.9179,64.869 71.5869,64.42 C67.9989,59.568 65.8369,54.134 64.9639,48.178 C64.8609,47.475 64.8669,46.755 64.8099,45.864 C65.7649,46.253 66.5649,46.574 67.3619,46.907 C68.9709,47.579 70.5709,47.727 72.2599,47.111 C73.3399,46.718 74.4849,46.439 75.6249,46.295 C77.1499,46.102 77.6989,46.485 78.3179,47.898 C79.3799,50.321 79.5089,52.921 79.8079,55.692 C78.6439,54.898 77.6259,55.119 76.5839,55.622 C76.0509,55.88 75.4549,56.02 74.8759,56.17 C72.4549,56.795 70.2679,56.559 68.6159,54.417 C68.4969,54.263 68.3259,54.146 68.1759,54.017 C68.1479,53.993 68.1009,53.992 67.7819,53.895 C67.8729,54.551 67.8919,55.112 68.0339,55.64 C69.1519,59.815 71.6609,62.968 75.2449,65.303 C76.0139,65.804 76.7899,66.342 77.6399,66.657 C78.8569,67.109 79.5769,67.862 80.0009,69.091 C80.4179,70.298 80.9159,71.315 79.6759,72.433 C78.8369,73.189 79.1359,76.036 79.9109,77.111 C80.9859,78.602 82.1929,79.001 83.9819,78.468 C84.2439,78.39 84.5159,78.346 84.9359,78.252 C85.2199,79.744 85.4369,81.192 85.7809,82.61 C86.1199,84.001 86.4449,85.425 87.0269,86.722 C88.1869,89.305 90.7269,90.582 93.4619,89.834 C95.1299,89.377 96.6659,88.446 98.2719,87.752 C99.2929,87.311 100.3059,86.811 101.3729,86.539 C101.9819,86.384 102.6949,86.635 103.3989,86.899 C101.2469,87.366 100.5729,88.986 99.8759,90.778 C100.9839,90.544 101.9319,90.257 102.8989,90.157 C105.6009,89.878 106.8939,91.214 106.1359,93.801 C105.6049,95.608 104.6699,97.334 103.6869,98.958 C103.0139,100.071 101.7889,100.5 100.4229,100.193 C98.9909,99.872 98.1179,98.998 97.7689,97.578 C97.5779,96.797 97.5909,95.853 96.3269,95.741 C96.1839,96.105 95.9839,96.454 95.9119,96.827 C95.5599,98.627 96.6079,100.754 98.2329,101.607 C102.1129,103.643 106.6019,102.427 108.8909,98.694 C110.5299,96.02 111.2819,93.026 111.7729,89.985 C111.9759,88.727 110.9629,87.892 109.9789,87.23 C109.6569,87.013 109.2609,86.906 108.7969,86.705 C108.7299,84.271 107.2979,82.565 105.5269,81.021 C101.5669,77.566 99.6049,72.949 98.2589,68.043 C97.0009,63.465 96.8969,58.812 97.8489,54.145 C98.2709,52.071 98.7019,49.997 99.0409,47.91 C99.1919,46.973 99.2619,45.978 99.1129,45.05 C98.9969,44.32 98.6309,43.521 98.1309,42.979 C96.0999,40.783 95.3129,38.09 94.8719,35.258 C94.4959,32.849 94.2649,30.419 93.8989,28.01 C93.5399,25.642 92.7079,23.452 91.1369,21.598 C90.4819,20.825 89.7469,20.227 88.6609,20.061 C87.4599,19.877 87.3459,19.516 87.8259,18.417 C88.0249,17.961 88.1529,17.473 88.3959,16.756 C87.3379,16.855 86.5249,16.931 85.7129,17.006 L85.6069,16.775 C86.4009,16.476 87.2129,16.214 87.9849,15.867 C88.4939,15.638 89.0839,15.39 89.4019,14.971 C90.4499,13.589 91.3909,12.126 92.2759,10.59 C89.7039,10.568 87.4199,11.318 85.2399,12.415 C84.9149,12.579 84.7179,13.004 84.4759,13.321 C82.4169,16.022 80.3679,18.732 78.2979,21.425 C77.9149,21.923 77.4499,22.357 76.9069,22.945 C76.7569,22.217 76.6459,21.677 76.4739,20.835 C75.5809,21.68 74.8069,22.412 74.0329,23.144 C73.9369,23.09 73.8429,23.037 73.7479,22.982 C74.1849,16.778 75.2689,10.819 80.2989,6.359 C79.5239,4.849 78.7799,4.558 77.4939,5.522 C74.3339,7.894 71.2299,10.342 68.1209,12.781 C66.8219,13.8 66.0399,15.173 65.5229,16.729 C65.2289,17.614 64.8289,18.463 64.4049,19.503 C63.3899,16.881 64.0219,14.873 66.0299,13.191 C65.9319,13.098 65.8359,13.006 65.7379,12.913 C64.9009,13.015 64.0609,13.093 63.2289,13.223 C53.6649,14.713 44.5409,17.499 36.2129,22.552 C28.9189,26.978 22.7109,32.514 18.6449,40.166 C15.6899,45.73 14.2069,51.579 14.8999,57.948 C15.2019,60.716 16.3979,62.771 18.5759,64.358 C20.3199,65.63 22.1469,66.799 23.7999,68.179 C24.9989,69.181 25.9749,70.451 26.9119,71.758 C24.0999,69.327 20.6219,68.228 17.3889,66.669 C15.9199,65.961 14.5329,65.084 13.0639,64.259 C13.3449,65.899 14.3159,67.135 15.5779,68.138 C17.0469,69.305 18.5889,70.379 20.0999,71.493 L20.0719,71.453 Z" id="Fill-1" fill="#FFFFFF" mask="url(#mask-2)"></path>
                        </g>
                        <path d="M80.2224,102.5331 C78.7714,102.1901 77.2944,101.9281 75.8714,101.4901 C70.6224,99.8771 65.5474,97.8941 61.1724,94.4351 C55.2554,89.7581 51.6134,83.7981 50.7864,76.2291 C50.7084,75.5181 50.7034,74.8001 50.6524,73.8421 C51.0314,74.1901 51.2524,74.3751 51.4534,74.5811 C51.8154,74.9531 52.1384,75.3671 52.5254,75.7111 C53.8684,76.9021 55.5164,77.8731 56.5084,79.3021 C57.4994,80.7301 57.7434,82.6531 58.4874,84.2811 C61.5304,90.9491 66.5934,95.6771 73.0124,99.0131 C75.0964,100.0971 77.3024,100.9471 79.4524,101.9011 C79.7334,102.0251 80.0184,102.1361 80.3014,102.2531 C80.2754,102.3461 80.2484,102.4401 80.2224,102.5331" id="Fill-4" fill="#FFFFFF"></path>
                        <path d="M63.9441,41.435 C64.6121,41.75 65.2811,42.065 66.2751,42.534 C66.0041,41.072 65.7921,39.936 65.5801,38.794 C65.7061,38.794 65.7631,38.776 65.7831,38.796 C68.9301,42 72.5111,42.675 76.5601,40.658 C76.7381,40.57 76.9321,40.514 77.1221,40.453 C79.3471,39.733 80.5401,40.416 80.8121,42.705 C80.9461,43.834 80.8361,44.994 80.8361,46.334 C80.0961,45.87 79.5761,45.518 79.0331,45.206 C77.2701,44.192 75.4511,43.941 73.5351,44.786 C72.7701,45.123 71.9871,45.436 71.1851,45.668 C68.4371,46.462 65.4611,45.161 64.2281,42.629 C64.0491,42.264 64.0471,41.813 63.9621,41.401 L63.9441,41.435 Z" id="Fill-6" fill="#FFFFFF"></path>
                        <path d="M41.4651,90.8534 C41.4381,90.8524 41.4111,90.8514 41.3831,90.8504 C41.4021,90.8374 41.4201,90.8244 41.4381,90.8114 L41.4651,90.8534 Z" id="Fill-8" fill="#FFFFFF"></path>
                        <path d="M19.5105,77.9511 C19.5655,77.9701 19.6195,77.9891 19.6745,78.0071 C19.6425,78.0431 19.6105,78.0791 19.5785,78.1151 C19.5585,78.0581 19.5375,78.0011 19.5175,77.9441 L19.5105,77.9511 Z" id="Fill-10" fill="#FFFFFF"></path>
                        <path d="M20.0998,72.1391 C20.0738,72.1391 20.0478,72.1391 20.0228,72.1391 C20.0388,72.1261 20.0558,72.1131 20.0718,72.0991 L20.0998,72.1391 Z" id="Fill-12" fill="#FFFFFF"></path>
                        <path d="M63.9617,41.4013 C63.9397,41.4223 63.9157,41.4423 63.8937,41.4623 C63.9097,41.4533 63.9277,41.4443 63.9437,41.4353 L63.9617,41.4013 Z" id="Fill-14" fill="#FFFFFF"></path>
                        <path d="M107.4441,16.1772 C107.4981,16.1582 107.5511,16.1392 107.5391,16.1432 C107.5521,16.1372 107.5021,16.1592 107.4501,16.1812 L107.4441,16.1772 Z" id="Fill-16" fill="#FFFFFF"></path>
                        <path d="M111.7663,24.7006 C111.7453,24.6986 111.7243,24.6956 111.7043,24.6936 C111.7133,24.6876 111.7223,24.6816 111.7323,24.6756 L111.7663,24.7006 Z" id="Fill-18" fill="#FFFFFF"></path>
                    </g>
                </g>
            </g>
        </g>
    </g>
</svg>